<svg version="1.1" id="Layer_1" xmlns="http://www.w3.org/2000/svg" xmlns:xlink="http://www.w3.org/1999/xlink" x="0px" y="0px"
	 width="100%" viewBox="0 0 708 706" enable-background="new 0 0 708 706" xml:space="preserve">
<path fill="#FEFFFF" opacity="1.000000" stroke="none" 
	d="
M466.000000,707.000000 
	C310.666656,707.000000 155.833328,707.000000 1.000000,707.000000 
	C1.000000,471.666656 1.000000,236.333328 1.000000,1.000000 
	C237.000000,1.000000 473.000000,1.000000 709.000000,1.000000 
	C709.000000,236.333328 709.000000,471.666656 709.000000,707.000000 
	C628.166687,707.000000 547.333313,707.000000 466.000000,707.000000 
M209.940567,445.008240 
	C200.775497,445.005859 191.606766,445.167572 182.446243,444.962402 
	C168.940720,444.659912 158.321899,435.306580 157.343170,423.158569 
	C156.457153,412.161346 165.657471,401.568848 178.936325,399.829163 
	C187.461121,398.712311 196.211288,399.315765 204.957108,399.975220 
	C204.384140,404.837372 206.616333,406.437317 211.354233,406.194366 
	C217.657242,405.871124 223.992966,406.254395 230.308167,406.088013 
	C248.278473,405.614655 264.000824,391.620361 265.959595,373.748566 
	C266.862335,365.512360 266.482758,357.133942 266.652466,348.819397 
	C267.042847,329.688721 265.560974,310.304474 268.135010,291.473663 
	C276.289368,231.819061 309.717529,191.352600 365.635864,169.493271 
	C385.665314,161.663452 406.737518,160.412552 428.014923,160.870941 
	C440.122650,161.131790 439.026306,161.764664 439.053345,149.871780 
	C439.087280,134.953033 439.866394,137.521454 427.061188,137.148010 
	C368.765289,135.447952 319.960236,155.591583 282.037964,200.524796 
	C277.987946,205.323563 274.248718,210.384644 269.471649,215.082413 
	C219.753830,207.997284 176.763809,238.289505 167.422897,287.223358 
	C166.480255,292.161499 166.640198,295.754822 159.495560,296.043335 
	C105.142784,298.238434 60.803421,341.237335 56.206387,395.545593 
	C50.820786,459.169769 100.983391,513.840515 164.907013,513.999878 
	C179.564240,514.036438 194.221588,514.023193 209.005096,514.838135 
	C208.550034,518.917053 210.464249,520.597717 214.463837,520.552856 
	C219.775040,520.493286 225.088974,520.721008 230.401123,520.695984 
	C246.596420,520.619568 262.462311,518.197876 278.968719,513.973083 
	C320.901611,513.973083 362.834503,513.973083 405.125641,513.973083 
	C405.125641,510.593323 405.125641,507.884735 405.125641,504.732941 
	C370.113098,504.732941 335.513794,504.732941 301.392151,504.268982 
	C302.212585,503.712585 303.002472,503.103516 303.857788,502.607300 
	C355.702179,472.526367 382.528351,427.721313 383.150940,367.595367 
	C383.345825,348.776428 383.048187,329.952515 383.218903,311.133118 
	C383.403778,290.752197 397.751129,277.214539 418.021973,277.817871 
	C423.342041,277.976227 428.674347,277.699493 434.001343,277.654938 
	C437.401886,277.626465 439.256866,276.317596 439.095367,272.552368 
	C438.895691,267.897217 438.980682,263.226105 439.062683,258.563995 
	C439.118256,255.406494 437.701782,253.997498 434.559998,254.022217 
	C428.564453,254.069382 422.567963,253.977386 416.572174,254.006531 
	C384.042725,254.164597 359.925964,278.360596 359.832916,310.976990 
	C359.777344,330.464020 359.957977,349.952637 359.778259,369.438232 
	C359.283081,423.134216 326.965637,469.940094 277.924194,488.659546 
	C258.054993,496.243713 237.447845,497.469879 216.536621,497.023499 
	C209.194794,496.866760 209.191788,497.007324 208.015976,504.551880 
	C194.688339,504.556213 181.342621,504.986511 168.039139,504.421753 
	C158.453369,504.014832 148.657257,503.325958 139.414459,500.964417 
	C94.222626,489.417999 63.042183,446.728668 65.497650,400.684448 
	C68.069496,352.457886 102.984222,313.257324 149.853958,306.217346 
	C155.406845,305.383270 161.356033,304.419891 166.688232,305.553864 
	C174.087173,307.127411 174.733688,306.967957 175.829437,299.333710 
	C177.118805,290.350433 178.322906,281.078247 181.556030,272.700073 
	C193.587555,241.522202 226.886856,218.962891 265.177551,224.773285 
	C248.931915,254.149597 241.901749,285.643127 242.896164,319.147186 
	C243.374695,335.269958 243.047455,351.419098 242.949936,367.555481 
	C242.896652,376.373260 236.903976,382.577972 228.438934,382.770996 
	C222.968262,382.895782 217.493057,382.820892 212.019913,382.839722 
	C205.296799,382.862854 205.296799,382.864746 203.950546,389.811646 
	C195.963501,389.863068 187.951874,389.537689 179.995377,390.057037 
	C168.962265,390.777222 159.822678,395.680145 153.466888,404.823578 
	C139.838181,424.429871 152.743225,451.143524 177.490692,453.842438 
	C188.522583,455.045532 199.747528,454.478546 210.959442,455.575256 
	C210.786880,458.627899 211.029037,461.423309 215.066498,461.554443 
	C229.561707,462.025330 244.042236,462.307831 258.227112,458.430634 
	C298.704041,447.366852 325.970093,411.642487 326.174591,369.579498 
	C326.283905,347.094177 325.560211,324.539490 327.064240,302.140442 
	C329.813812,261.192841 363.609283,225.718933 404.178223,220.088409 
	C413.688965,218.768387 423.430023,218.933868 433.070496,218.798553 
	C437.594238,218.735077 439.421051,217.164993 439.108185,212.581665 
	C438.813812,208.269073 438.990143,203.919632 439.064423,199.588196 
	C439.118805,196.415909 437.626984,194.973633 434.514496,195.087402 
	C423.705597,195.482483 412.730988,194.808075 402.115326,196.451584 
	C343.853210,205.471649 302.945374,253.572769 302.791901,312.520905 
	C302.742859,331.351410 302.856384,350.182495 302.779816,369.012817 
	C302.651337,400.605347 282.460083,427.933289 252.208191,435.321777 
	C241.245453,437.999268 229.448959,437.393677 218.016953,437.969757 
	C211.197250,438.313385 211.183334,438.037140 209.940567,445.008240 
M552.488770,270.176239 
	C549.129333,277.414948 550.512634,283.997253 556.210449,287.885834 
	C561.976746,291.821167 568.833252,290.575378 574.167053,285.031464 
	C575.263184,283.892212 577.603455,283.085876 579.145325,283.365662 
	C619.949707,290.769928 648.554749,329.092957 644.897156,371.242493 
	C641.363220,411.966919 606.017395,444.803741 565.140442,444.954468 
	C516.641541,445.133270 468.141571,445.016266 419.642090,445.030548 
	C418.142548,445.031006 416.278107,444.513702 415.226440,445.209320 
	C413.521454,446.337097 411.458984,448.160400 411.243225,449.900360 
	C411.079803,451.218323 413.299957,453.355225 414.938446,454.217285 
	C416.400726,454.986694 418.519318,454.571106 420.348328,454.571930 
	C450.014709,454.585144 479.681274,454.642792 509.347412,454.560333 
	C530.003235,454.502899 550.699158,455.017303 571.306091,453.929718 
	C622.909973,451.206238 662.833496,399.863556 653.547302,349.002625 
	C646.355042,309.610046 618.948364,281.740295 579.737305,273.795898 
	C578.139282,273.472168 576.273376,272.456665 575.343018,271.174957 
	C568.751404,262.093872 560.491943,261.422211 552.488770,270.176239 
M512.707581,295.090942 
	C517.130798,330.956207 506.129944,361.145020 478.806061,384.873810 
	C461.494263,399.907867 440.961639,407.350800 418.018524,407.993805 
	C414.482544,408.092896 410.849548,408.337616 411.044281,413.004517 
	C411.236328,417.607086 414.903717,417.762421 418.409393,417.556671 
	C421.898834,417.351807 425.424377,417.310730 428.862793,416.755981 
	C473.934509,409.484589 505.175262,384.554718 518.333313,340.919037 
	C531.417114,297.529572 519.563660,259.538391 486.151398,228.579468 
	C483.598419,226.213959 480.813538,224.432800 478.021027,227.692047 
	C475.309875,230.856369 477.306305,233.350571 479.952820,235.691238 
	C497.675262,251.365707 508.542877,270.889679 512.707581,295.090942 
M207.970810,552.426025 
	C204.283432,558.060547 200.596054,563.695068 196.726440,569.607971 
	C195.813431,568.373901 195.285629,567.732971 194.835800,567.041321 
	C190.390854,560.205933 185.887848,553.406799 181.551132,546.503235 
	C179.149109,542.679443 175.699097,542.586975 171.925720,543.320557 
	C167.975372,544.088562 167.947708,547.073914 167.962555,550.247803 
	C168.028061,564.244751 168.084869,578.243286 167.932953,592.238892 
	C167.889099,596.279419 169.660141,598.009888 173.438385,598.376648 
	C179.143982,598.930420 180.999420,597.325317 181.004974,591.620056 
	C181.013763,582.607483 181.007309,573.594971 181.007309,564.582397 
	C184.728806,568.799805 187.500473,573.125854 190.257385,577.461304 
	C195.105026,585.084656 198.134415,585.042969 203.121536,577.300476 
	C205.850784,573.063293 208.615921,568.849243 211.364868,564.624695 
	C212.195145,574.125183 212.148071,583.260681 212.214737,592.395325 
	C212.248703,597.049500 214.129639,598.593079 219.226715,598.456726 
	C223.090286,598.353394 225.282730,597.073608 225.203842,592.498413 
	C224.959732,578.338745 225.099701,564.172180 225.127045,550.008301 
	C225.132584,547.144531 225.518661,544.138794 221.668839,543.346375 
	C218.082947,542.608215 214.653412,542.681274 212.224823,545.993896 
	C210.848923,547.870605 209.636017,549.866882 207.970810,552.426025 
M630.235718,583.276062 
	C632.250977,587.280212 634.169250,591.337219 636.312073,595.271851 
	C638.029907,598.426208 644.192566,599.646606 647.391113,597.491699 
	C651.063843,595.017212 648.277466,592.530212 647.110352,590.207764 
	C644.595276,585.202942 641.921326,580.278015 639.245178,575.192932 
	C640.233154,574.463013 641.040222,573.909058 641.801270,573.297729 
	C647.247009,568.923828 649.303101,561.350342 646.960388,554.348022 
	C644.636475,547.401550 639.709229,544.028992 631.709351,543.994446 
	C623.889954,543.960693 616.068359,544.087708 608.251343,543.945923 
	C603.684082,543.863159 601.261963,545.942383 601.234375,550.396912 
	C601.145874,564.704529 601.196838,579.013062 601.210693,593.321228 
	C601.215332,598.141357 604.797180,598.407959 608.177734,598.405579 
	C611.497742,598.403320 614.430664,597.778809 614.175720,593.116760 
	C613.870605,587.536804 614.103760,581.927490 614.103760,576.171997 
	C620.777039,576.129272 627.689087,573.681335 630.235718,583.276062 
M387.247803,555.531128 
	C384.508392,547.659790 380.629883,544.225220 373.436157,544.050171 
	C364.792236,543.839844 356.139160,544.030579 347.490326,543.985168 
	C343.297180,543.963196 341.265564,546.305481 341.233887,550.139954 
	C341.114319,564.609497 341.134583,579.081177 341.234253,593.551086 
	C341.267181,598.334045 345.045807,598.439331 348.389099,598.396973 
	C351.503448,598.357422 354.349792,597.739929 354.171295,593.371216 
	C353.942322,587.768738 354.115662,582.149841 354.115662,576.012390 
	C356.577026,576.012390 358.563293,576.263977 360.461761,575.962646 
	C365.129913,575.221619 367.673950,577.169128 369.414215,581.473755 
	C371.336395,586.228638 373.871765,590.749084 376.324768,595.271423 
	C378.071808,598.492310 384.110504,599.673096 387.382141,597.489929 
	C391.074982,595.025635 388.292084,592.546997 387.121338,590.221436 
	C384.602509,585.218262 381.939362,580.287720 379.258240,575.180725 
	C386.325897,570.658875 388.919586,564.326843 387.247803,555.531128 
M477.992218,577.497864 
	C477.994415,582.152405 477.934082,586.808105 478.016968,591.461243 
	C478.095490,595.868469 480.199921,598.143066 484.856537,598.043274 
	C491.668976,597.897278 498.488007,598.086792 505.302368,597.995911 
	C520.674438,597.791077 531.026306,586.882385 531.021484,570.995667 
	C531.016663,555.074219 520.688416,544.202942 505.299500,544.006470 
	C498.817383,543.923706 492.333313,543.973755 485.850189,543.991943 
	C479.694427,544.009155 478.021667,545.698242 477.990692,552.062439 
	C477.951111,560.207642 477.988190,568.353333 477.992218,577.497864 
M553.439575,596.251526 
	C554.859192,596.722717 556.254578,597.291687 557.702148,597.650085 
	C573.348816,601.525085 588.320740,593.860718 591.941650,579.712402 
	C594.679443,569.014709 593.799377,558.632935 585.364929,550.515320 
	C576.868774,542.338318 566.428528,541.379150 555.537537,544.490356 
	C545.819946,547.266357 538.889587,555.972412 537.999207,565.995483 
	C536.848755,578.945618 540.054688,589.812622 553.439575,596.251526 
M120.008499,598.000610 
	C131.662094,598.000854 143.317505,597.882874 154.968323,598.062622 
	C159.317047,598.129700 160.527191,596.055847 160.297150,592.230652 
	C160.087128,588.738525 158.065018,587.915955 154.914093,587.957092 
	C145.670059,588.077881 136.423416,588.000122 127.256805,588.000122 
	C127.256805,583.641785 127.256805,580.038391 127.256805,576.002808 
	C133.788712,576.002808 140.079971,575.858459 146.360519,576.055542 
	C150.276749,576.178467 153.051804,575.278809 152.943405,570.768799 
	C152.840424,566.483765 150.018570,565.851624 146.411591,565.944092 
	C139.999832,566.108521 133.580826,565.990295 127.262115,565.990295 
	C127.262115,561.634399 127.262115,558.030396 127.262115,554.005066 
	C136.631638,554.005066 145.751205,553.873413 154.863861,554.067261 
	C158.729645,554.149414 160.453720,552.572815 160.443939,548.863647 
	C160.434647,545.343262 158.703369,543.904907 155.116776,543.945984 
	C143.631149,544.077576 132.142593,544.055420 120.656166,543.964478 
	C116.266434,543.929749 114.060379,546.064636 114.033783,550.250916 
	C113.945999,564.068115 113.968987,577.886536 114.031624,591.704041 
	C114.046730,595.036072 115.445755,597.498291 120.008499,598.000610 
M296.749481,543.994324 
	C289.333527,544.037659 288.009216,545.335510 288.000580,552.688293 
	C287.985870,565.188171 287.964783,577.688171 288.008759,590.187866 
	C288.030396,596.323181 289.681976,597.984741 295.619080,597.998596 
	C306.452209,598.023804 317.286591,597.914978 328.117920,598.056091 
	C331.785156,598.103882 334.361389,597.497986 334.392029,593.083923 
	C334.421936,588.782715 332.113983,587.859253 328.304626,587.936646 
	C319.357269,588.118713 310.403687,587.994995 301.324097,587.994995 
	C301.324097,583.737244 301.324097,580.020752 301.324097,576.002319 
	C308.120392,576.002319 314.600037,575.866760 321.070251,576.054932 
	C324.755859,576.162109 326.945404,574.861206 326.945587,571.065186 
	C326.945801,567.373169 324.971130,565.825378 321.189545,565.937012 
	C314.587372,566.132019 307.975281,565.991394 301.367126,565.991394 
	C301.367126,561.697693 301.367126,557.979797 301.367126,554.006653 
	C310.713837,554.006653 319.699280,553.895874 328.679688,554.059937 
	C332.388489,554.127686 334.344574,552.960999 334.345856,549.005920 
	C334.347168,545.057312 332.405914,543.884399 328.690521,543.940002 
	C318.359589,544.094727 308.024872,543.994629 296.749481,543.994324 
M259.177094,598.474792 
	C265.836853,597.991455 272.001495,596.256714 276.617188,591.059021 
	C282.290131,584.670776 281.107880,576.068298 273.637512,572.002258 
	C269.450684,569.723511 264.742340,568.378296 260.219849,566.748840 
	C256.789917,565.513184 253.160446,564.768860 249.842621,563.301880 
	C246.268890,561.721741 245.591171,558.224609 247.893738,555.527405 
	C251.875290,550.863464 263.183929,552.630981 265.489685,558.277649 
	C267.227600,562.533752 271.694977,564.184998 276.012604,561.951782 
	C280.365173,559.700500 278.142700,556.265686 277.118713,553.300842 
	C276.599152,551.796570 275.426758,550.413147 274.273010,549.249207 
	C265.878998,540.781616 246.338058,540.861938 237.961639,549.332031 
	C231.196884,556.172424 232.519104,566.222351 240.955673,570.698730 
	C243.864410,572.242004 247.088074,573.221191 250.220200,574.307129 
	C254.763474,575.882507 259.399017,577.199158 263.909088,578.860046 
	C266.946259,579.978455 268.491150,583.137390 266.190857,585.048584 
	C263.691559,587.125000 259.643463,588.337097 256.362091,588.166565 
	C253.570267,588.021545 249.892609,586.022644 248.412537,583.695496 
	C245.790878,579.573547 242.163406,577.484741 237.671600,579.521423 
	C234.598999,580.914612 234.192047,584.671753 236.971451,589.004517 
	C238.111984,590.782471 239.589050,592.936279 241.393265,593.586426 
	C246.916229,595.576477 252.672134,596.919983 259.177094,598.474792 
M71.558029,596.149536 
	C81.861458,599.785034 91.877487,599.885742 100.795479,592.747192 
	C108.787003,586.350159 107.794220,576.289734 98.784966,571.514587 
	C95.150398,569.588196 91.131248,568.354553 87.224594,566.983826 
	C83.477608,565.668945 79.537666,564.852173 75.889008,563.323608 
	C72.283562,561.813232 71.550415,558.344299 73.798103,555.619141 
	C77.623367,550.981201 89.181030,552.608948 91.464859,558.107239 
	C93.279343,562.475586 97.449249,564.158936 101.845421,562.000916 
	C106.542366,559.695312 104.207130,556.066956 102.948547,553.025452 
	C102.225380,551.277832 100.699791,549.728271 99.224373,548.447998 
	C90.869133,541.198181 73.710831,541.101257 65.215561,548.147400 
	C56.980484,554.977783 58.059025,566.241699 67.615517,571.029724 
	C71.141991,572.796570 75.067383,573.770996 78.818893,575.083740 
	C82.725647,576.450867 86.794968,577.468872 90.509705,579.235657 
	C93.969398,580.881165 93.938568,584.572144 90.861183,586.842407 
	C85.527802,590.776917 76.401604,588.280212 73.947113,582.215088 
	C72.712883,579.165283 68.019958,577.850281 63.958313,579.356812 
	C60.496410,580.640808 60.283184,583.657837 61.798046,585.845154 
	C64.342346,589.519043 67.779129,592.574768 71.558029,596.149536 
M432.960815,550.400818 
	C428.800720,559.907898 424.640625,569.414978 420.021057,579.972107 
	C418.626648,576.847534 417.705750,574.787109 416.787323,572.725525 
	C412.933380,564.074707 409.157715,555.387756 405.190277,546.789246 
	C403.497162,543.119873 398.966919,541.939514 394.925507,543.681091 
	C390.267029,545.688599 392.521515,548.653259 393.782440,551.475952 
	C400.154510,565.740601 406.387421,580.071655 413.091949,594.178528 
	C414.041748,596.177002 417.258698,598.086548 419.517334,598.198364 
	C421.808380,598.311768 425.483887,596.748291 426.365845,594.884338 
	C433.539185,579.724487 440.179016,564.312683 447.032837,549.000671 
	C448.306824,546.154480 447.128967,544.597351 444.600372,543.559509 
	C439.543518,541.483704 435.973572,543.407166 432.960815,550.400818 
M445.826447,171.412949 
	C445.826447,172.245377 445.824646,173.077789 445.826752,173.910217 
	C445.844788,181.052689 446.322144,181.542084 453.474945,181.558182 
	C458.469360,181.569427 463.463806,181.530106 468.458252,181.536087 
	C471.853485,181.540161 473.835358,180.059937 473.840240,176.486130 
	C473.848419,170.492706 473.830109,164.499252 473.835175,158.505814 
	C473.837921,155.272324 472.239197,153.452698 469.014771,153.408035 
	C462.856262,153.322739 456.695496,153.354675 450.536102,153.399765 
	C447.253204,153.423798 445.741821,155.152725 445.808197,158.450851 
	C445.888550,162.444778 445.826660,166.441544 445.826447,171.412949 
M473.837708,134.436157 
	C473.831482,130.607742 473.871124,126.778542 473.804718,122.951172 
	C473.750153,119.806839 472.287323,117.961906 468.920197,117.978767 
	C462.761658,118.009590 456.602814,117.985832 450.444244,118.010353 
	C447.432556,118.022339 445.815887,119.442642 445.833588,122.587067 
	C445.868286,128.745621 445.884491,134.904892 445.826324,141.063095 
	C445.791870,144.712372 447.630554,146.106934 451.111023,146.023239 
	C455.103577,145.927200 459.100250,146.000046 463.095123,146.002960 
	C473.853088,146.010788 473.853088,146.011505 473.837708,134.436157 
M453.994385,591.216431 
	C454.163391,597.098511 455.431824,598.401428 460.907898,598.317627 
	C466.031891,598.239197 467.000458,597.104248 467.002289,591.128784 
	C467.006500,577.329651 466.820282,563.526794 467.103607,549.733459 
	C467.203217,544.883606 465.213898,543.064148 460.769928,543.005432 
	C455.784210,542.939575 454.015594,544.666748 454.003387,549.872253 
	C453.971832,563.338806 453.993896,576.805481 453.994385,591.216431 
M499.579437,142.348984 
	C495.992432,141.749252 492.415100,141.081757 488.815918,140.567276 
	C484.501862,139.950638 482.566711,141.405441 482.762665,146.256119 
	C483.292999,159.383865 480.755249,157.393143 494.578033,157.754852 
	C498.819611,157.865845 500.236481,156.178177 499.904449,152.155106 
	C499.659454,149.186508 499.814606,146.184875 499.579437,142.348984 
M433.610840,165.885361 
	C427.161835,165.286667 429.385956,170.293442 429.586945,172.992752 
	C429.971436,178.156906 434.794556,176.270233 436.947327,175.658035 
	C442.451538,174.092819 438.574707,169.551788 439.637604,165.868149 
	C437.437256,165.868149 435.973267,165.868149 433.610840,165.885361 
M460.625824,508.642578 
	C460.016327,504.122467 457.907349,503.382660 450.838379,505.683319 
	C452.968964,508.100555 448.123352,512.872803 454.093262,513.807800 
	C457.076324,514.275024 461.297668,515.165039 460.625824,508.642578 
M414.872894,505.464691 
	C414.768402,506.445984 414.616455,507.424988 414.568237,508.409027 
	C414.416138,511.511932 414.168121,514.113464 418.952148,514.080383 
	C423.444366,514.049377 424.406433,512.263123 423.906311,508.480774 
	C423.760895,507.381042 423.664948,506.274750 423.522125,504.946289 
	C420.681854,504.946289 418.082367,504.946289 414.872894,505.464691 
M441.041656,513.634705 
	C441.488953,510.848328 441.936218,508.061951 442.439789,504.924805 
	C438.807526,504.924805 436.068420,504.924805 433.378906,504.924805 
	C433.378906,508.028076 433.378906,510.754639 433.378906,513.852356 
	C435.902618,513.852356 438.040527,513.852356 441.041656,513.634705 
M483.275269,120.760178 
	C485.940338,120.967216 488.605438,121.174263 491.208435,121.376488 
	C492.464478,112.101707 491.436615,111.155159 482.951508,113.232521 
	C482.951508,115.419571 482.951508,117.691383 483.275269,120.760178 
M494.199402,172.105179 
	C486.277954,171.998993 485.786407,172.650345 487.863800,180.672714 
	C490.383972,180.672714 492.932404,180.672714 496.317719,180.672714 
	C495.851318,177.591736 495.453735,174.965424 494.199402,172.105179 
z"/>
<path fill="#1CABC0" opacity="1.000000" stroke="none" 
	d="
M270.365356,215.324051 
	C274.248718,210.384644 277.987946,205.323563 282.037964,200.524796 
	C319.960236,155.591583 368.765289,135.447952 427.061188,137.148010 
	C439.866394,137.521454 439.087280,134.953033 439.053345,149.871780 
	C439.026306,161.764664 440.122650,161.131790 428.014923,160.870941 
	C406.737518,160.412552 385.665314,161.663452 365.635864,169.493271 
	C309.717529,191.352600 276.289368,231.819061 268.135010,291.473663 
	C265.560974,310.304474 267.042847,329.688721 266.652466,348.819397 
	C266.482758,357.133942 266.862335,365.512360 265.959595,373.748566 
	C264.000824,391.620361 248.278473,405.614655 230.308167,406.088013 
	C223.992966,406.254395 217.657242,405.871124 211.354233,406.194366 
	C206.616333,406.437317 204.384140,404.837372 204.962555,399.098328 
	C204.933884,395.410065 204.899780,392.598724 204.865662,389.787384 
	C205.296799,382.864746 205.296799,382.862854 212.019913,382.839722 
	C217.493057,382.820892 222.968262,382.895782 228.438934,382.770996 
	C236.903976,382.577972 242.896652,376.373260 242.949936,367.555481 
	C243.047455,351.419098 243.374695,335.269958 242.896164,319.147186 
	C241.901749,285.643127 248.931915,254.149597 265.478149,224.219299 
	C267.307617,220.884903 268.836487,218.104477 270.365356,215.324051 
z"/>
<path fill="#1BABC0" opacity="1.000000" stroke="none" 
	d="
M208.939163,504.508667 
	C209.191788,497.007324 209.194794,496.866760 216.536621,497.023499 
	C237.447845,497.469879 258.054993,496.243713 277.924194,488.659546 
	C326.965637,469.940094 359.283081,423.134216 359.778259,369.438232 
	C359.957977,349.952637 359.777344,330.464020 359.832916,310.976990 
	C359.925964,278.360596 384.042725,254.164597 416.572174,254.006531 
	C422.567963,253.977386 428.564453,254.069382 434.559998,254.022217 
	C437.701782,253.997498 439.118256,255.406494 439.062683,258.563995 
	C438.980682,263.226105 438.895691,267.897217 439.095367,272.552368 
	C439.256866,276.317596 437.401886,277.626465 434.001343,277.654938 
	C428.674347,277.699493 423.342041,277.976227 418.021973,277.817871 
	C397.751129,277.214539 383.403778,290.752197 383.218903,311.133118 
	C383.048187,329.952515 383.345825,348.776428 383.150940,367.595367 
	C382.528351,427.721313 355.702179,472.526367 303.857788,502.607300 
	C303.002472,503.103516 302.212585,503.712585 300.797333,504.582092 
	C292.816986,507.877350 285.431488,510.859497 278.045959,513.841675 
	C262.462311,518.197876 246.596420,520.619568 230.401123,520.695984 
	C225.088974,520.721008 219.775040,520.493286 214.463837,520.552856 
	C210.464249,520.597717 208.550034,518.917053 208.988602,513.990723 
	C208.961121,510.265106 208.950134,507.386871 208.939163,504.508667 
z"/>
<path fill="#1BABC0" opacity="1.000000" stroke="none" 
	d="
M210.851913,444.975494 
	C211.183334,438.037140 211.197250,438.313385 218.016953,437.969757 
	C229.448959,437.393677 241.245453,437.999268 252.208191,435.321777 
	C282.460083,427.933289 302.651337,400.605347 302.779816,369.012817 
	C302.856384,350.182495 302.742859,331.351410 302.791901,312.520905 
	C302.945374,253.572769 343.853210,205.471649 402.115326,196.451584 
	C412.730988,194.808075 423.705597,195.482483 434.514496,195.087402 
	C437.626984,194.973633 439.118805,196.415909 439.064423,199.588196 
	C438.990143,203.919632 438.813812,208.269073 439.108185,212.581665 
	C439.421051,217.164993 437.594238,218.735077 433.070496,218.798553 
	C423.430023,218.933868 413.688965,218.768387 404.178223,220.088409 
	C363.609283,225.718933 329.813812,261.192841 327.064240,302.140442 
	C325.560211,324.539490 326.283905,347.094177 326.174591,369.579498 
	C325.970093,411.642487 298.704041,447.366852 258.227112,458.430634 
	C244.042236,462.307831 229.561707,462.025330 215.066498,461.554443 
	C211.029037,461.423309 210.786880,458.627899 210.954681,454.718689 
	C210.917236,450.899902 210.884583,447.937683 210.851913,444.975494 
z"/>
<path fill="#576B7E" opacity="1.000000" stroke="none" 
	d="
M208.477570,504.530273 
	C208.950134,507.386871 208.961121,510.265106 208.925507,513.588135 
	C194.221588,514.023193 179.564240,514.036438 164.907013,513.999878 
	C100.983391,513.840515 50.820786,459.169769 56.206387,395.545593 
	C60.803421,341.237335 105.142784,298.238434 159.495560,296.043335 
	C166.640198,295.754822 166.480255,292.161499 167.422897,287.223358 
	C176.763809,238.289505 219.753830,207.997284 269.918518,215.203232 
	C268.836487,218.104477 267.307617,220.884903 265.513367,223.852783 
	C226.886856,218.962891 193.587555,241.522202 181.556030,272.700073 
	C178.322906,281.078247 177.118805,290.350433 175.829437,299.333710 
	C174.733688,306.967957 174.087173,307.127411 166.688232,305.553864 
	C161.356033,304.419891 155.406845,305.383270 149.853958,306.217346 
	C102.984222,313.257324 68.069496,352.457886 65.497650,400.684448 
	C63.042183,446.728668 94.222626,489.417999 139.414459,500.964417 
	C148.657257,503.325958 158.453369,504.014832 168.039139,504.421753 
	C181.342621,504.986511 194.688339,504.556213 208.477570,504.530273 
z"/>
<path fill="#576B7D" opacity="1.000000" stroke="none" 
	d="
M552.700806,269.867706 
	C560.491943,261.422211 568.751404,262.093872 575.343018,271.174957 
	C576.273376,272.456665 578.139282,273.472168 579.737305,273.795898 
	C618.948364,281.740295 646.355042,309.610046 653.547302,349.002625 
	C662.833496,399.863556 622.909973,451.206238 571.306091,453.929718 
	C550.699158,455.017303 530.003235,454.502899 509.347412,454.560333 
	C479.681274,454.642792 450.014709,454.585144 420.348328,454.571930 
	C418.519318,454.571106 416.400726,454.986694 414.938446,454.217285 
	C413.299957,453.355225 411.079803,451.218323 411.243225,449.900360 
	C411.458984,448.160400 413.521454,446.337097 415.226440,445.209320 
	C416.278107,444.513702 418.142548,445.031006 419.642090,445.030548 
	C468.141571,445.016266 516.641541,445.133270 565.140442,444.954468 
	C606.017395,444.803741 641.363220,411.966919 644.897156,371.242493 
	C648.554749,329.092957 619.949707,290.769928 579.145325,283.365662 
	C577.603455,283.085876 575.263184,283.892212 574.167053,285.031464 
	C568.833252,290.575378 561.976746,291.821167 556.210449,287.885834 
	C550.512634,283.997253 549.129333,277.414948 552.700806,269.867706 
z"/>
<path fill="#586B7E" opacity="1.000000" stroke="none" 
	d="
M512.609924,294.661407 
	C508.542877,270.889679 497.675262,251.365707 479.952820,235.691238 
	C477.306305,233.350571 475.309875,230.856369 478.021027,227.692047 
	C480.813538,224.432800 483.598419,226.213959 486.151398,228.579468 
	C519.563660,259.538391 531.417114,297.529572 518.333313,340.919037 
	C505.175262,384.554718 473.934509,409.484589 428.862793,416.755981 
	C425.424377,417.310730 421.898834,417.351807 418.409393,417.556671 
	C414.903717,417.762421 411.236328,417.607086 411.044281,413.004517 
	C410.849548,408.337616 414.482544,408.092896 418.018524,407.993805 
	C440.961639,407.350800 461.494263,399.907867 478.806061,384.873810 
	C506.129944,361.145020 517.130798,330.956207 512.609924,294.661407 
z"/>
<path fill="#556A7D" opacity="1.000000" stroke="none" 
	d="
M208.160248,552.117676 
	C209.636017,549.866882 210.848923,547.870605 212.224823,545.993896 
	C214.653412,542.681274 218.082947,542.608215 221.668839,543.346375 
	C225.518661,544.138794 225.132584,547.144531 225.127045,550.008301 
	C225.099701,564.172180 224.959732,578.338745 225.203842,592.498413 
	C225.282730,597.073608 223.090286,598.353394 219.226715,598.456726 
	C214.129639,598.593079 212.248703,597.049500 212.214737,592.395325 
	C212.148071,583.260681 212.195145,574.125183 211.364868,564.624695 
	C208.615921,568.849243 205.850784,573.063293 203.121536,577.300476 
	C198.134415,585.042969 195.105026,585.084656 190.257385,577.461304 
	C187.500473,573.125854 184.728806,568.799805 181.007309,564.582397 
	C181.007309,573.594971 181.013763,582.607483 181.004974,591.620056 
	C180.999420,597.325317 179.143982,598.930420 173.438385,598.376648 
	C169.660141,598.009888 167.889099,596.279419 167.932953,592.238892 
	C168.084869,578.243286 168.028061,564.244751 167.962555,550.247803 
	C167.947708,547.073914 167.975372,544.088562 171.925720,543.320557 
	C175.699097,542.586975 179.149109,542.679443 181.551132,546.503235 
	C185.887848,553.406799 190.390854,560.205933 194.835800,567.041321 
	C195.285629,567.732971 195.813431,568.373901 196.726440,569.607971 
	C200.596054,563.695068 204.283432,558.060547 208.160248,552.117676 
z"/>
<path fill="#1DABC0" opacity="1.000000" stroke="none" 
	d="
M630.072510,582.936646 
	C627.689087,573.681335 620.777039,576.129272 614.103760,576.171997 
	C614.103760,581.927490 613.870605,587.536804 614.175720,593.116760 
	C614.430664,597.778809 611.497742,598.403320 608.177734,598.405579 
	C604.797180,598.407959 601.215332,598.141357 601.210693,593.321228 
	C601.196838,579.013062 601.145874,564.704529 601.234375,550.396912 
	C601.261963,545.942383 603.684082,543.863159 608.251343,543.945923 
	C616.068359,544.087708 623.889954,543.960693 631.709351,543.994446 
	C639.709229,544.028992 644.636475,547.401550 646.960388,554.348022 
	C649.303101,561.350342 647.247009,568.923828 641.801270,573.297729 
	C641.040222,573.909058 640.233154,574.463013 639.245178,575.192932 
	C641.921326,580.278015 644.595276,585.202942 647.110352,590.207764 
	C648.277466,592.530212 651.063843,595.017212 647.391113,597.491699 
	C644.192566,599.646606 638.029907,598.426208 636.312073,595.271851 
	C634.169250,591.337219 632.250977,587.280212 630.072510,582.936646 
M633.453064,564.047119 
	C635.796143,558.883484 634.329590,554.487793 629.758606,554.126587 
	C624.707153,553.727356 619.599792,554.035400 614.472595,554.035400 
	C614.472595,558.343140 614.472595,562.041260 614.472595,566.626709 
	C620.923340,565.936951 626.913940,565.296448 633.453064,564.047119 
z"/>
<path fill="#1DABC0" opacity="1.000000" stroke="none" 
	d="
M387.379211,555.919556 
	C388.919586,564.326843 386.325897,570.658875 379.258240,575.180725 
	C381.939362,580.287720 384.602509,585.218262 387.121338,590.221436 
	C388.292084,592.546997 391.074982,595.025635 387.382141,597.489929 
	C384.110504,599.673096 378.071808,598.492310 376.324768,595.271423 
	C373.871765,590.749084 371.336395,586.228638 369.414215,581.473755 
	C367.673950,577.169128 365.129913,575.221619 360.461761,575.962646 
	C358.563293,576.263977 356.577026,576.012390 354.115662,576.012390 
	C354.115662,582.149841 353.942322,587.768738 354.171295,593.371216 
	C354.349792,597.739929 351.503448,598.357422 348.389099,598.396973 
	C345.045807,598.439331 341.267181,598.334045 341.234253,593.551086 
	C341.134583,579.081177 341.114319,564.609497 341.233887,550.139954 
	C341.265564,546.305481 343.297180,543.963196 347.490326,543.985168 
	C356.139160,544.030579 364.792236,543.839844 373.436157,544.050171 
	C380.629883,544.225220 384.508392,547.659790 387.379211,555.919556 
M354.110504,558.606079 
	C354.110504,561.003967 354.110504,563.401794 354.110504,565.997192 
	C359.556183,565.997192 364.188751,566.003906 368.821289,565.995117 
	C372.695923,565.987732 374.750153,563.786621 374.778229,560.162720 
	C374.805603,556.630310 372.972778,554.135681 369.081787,554.032410 
	C365.109314,553.926941 361.125183,554.148071 357.158966,553.958435 
	C354.200928,553.816895 353.916901,555.452759 354.110504,558.606079 
z"/>
<path fill="#1BABBF" opacity="1.000000" stroke="none" 
	d="
M477.992218,576.998291 
	C477.988190,568.353333 477.951111,560.207642 477.990692,552.062439 
	C478.021667,545.698242 479.694427,544.009155 485.850189,543.991943 
	C492.333313,543.973755 498.817383,543.923706 505.299500,544.006470 
	C520.688416,544.202942 531.016663,555.074219 531.021484,570.995667 
	C531.026306,586.882385 520.674438,597.791077 505.302368,597.995911 
	C498.488007,598.086792 491.668976,597.897278 484.856537,598.043274 
	C480.199921,598.143066 478.095490,595.868469 478.016968,591.461243 
	C477.934082,586.808105 477.994415,582.152405 477.992218,576.998291 
M493.727264,587.999023 
	C497.220673,587.998352 500.714294,588.020630 504.207489,587.992310 
	C511.852051,587.930359 516.753174,583.500061 517.902161,575.647583 
	C519.477478,564.880981 515.744202,556.462219 508.460693,554.356934 
	C508.300873,554.310730 508.140228,554.228821 507.979889,554.228638 
	C502.402008,554.221924 496.824097,554.223022 491.004395,554.223022 
	C491.004395,564.836548 490.956482,574.967834 491.081696,585.096863 
	C491.093658,586.064453 492.186157,587.018555 493.727264,587.999023 
z"/>
<path fill="#1DABC0" opacity="1.000000" stroke="none" 
	d="
M553.069336,596.143616 
	C540.054688,589.812622 536.848755,578.945618 537.999207,565.995483 
	C538.889587,555.972412 545.819946,547.266357 555.537537,544.490356 
	C566.428528,541.379150 576.868774,542.338318 585.364929,550.515320 
	C593.799377,558.632935 594.679443,569.014709 591.941650,579.712402 
	C588.320740,593.860718 573.348816,601.525085 557.702148,597.650085 
	C556.254578,597.291687 554.859192,596.722717 553.069336,596.143616 
M578.830872,562.078064 
	C576.155579,556.253906 571.808350,552.988403 565.210022,552.990601 
	C559.223633,552.992615 554.967590,555.895081 552.514343,561.081848 
	C549.524231,567.403748 549.576477,574.014954 552.472168,580.388733 
	C554.994385,585.940491 559.721130,588.682007 565.662659,588.596497 
	C571.631897,588.510681 576.907471,585.654602 578.344543,579.873657 
	C579.687195,574.472229 578.909119,568.543579 578.830872,562.078064 
z"/>
<path fill="#54697C" opacity="1.000000" stroke="none" 
	d="
M119.564819,597.995605 
	C115.445755,597.498291 114.046730,595.036072 114.031624,591.704041 
	C113.968987,577.886536 113.945999,564.068115 114.033783,550.250916 
	C114.060379,546.064636 116.266434,543.929749 120.656166,543.964478 
	C132.142593,544.055420 143.631149,544.077576 155.116776,543.945984 
	C158.703369,543.904907 160.434647,545.343262 160.443939,548.863647 
	C160.453720,552.572815 158.729645,554.149414 154.863861,554.067261 
	C145.751205,553.873413 136.631638,554.005066 127.262115,554.005066 
	C127.262115,558.030396 127.262115,561.634399 127.262115,565.990295 
	C133.580826,565.990295 139.999832,566.108521 146.411591,565.944092 
	C150.018570,565.851624 152.840424,566.483765 152.943405,570.768799 
	C153.051804,575.278809 150.276749,576.178467 146.360519,576.055542 
	C140.079971,575.858459 133.788712,576.002808 127.256805,576.002808 
	C127.256805,580.038391 127.256805,583.641785 127.256805,588.000122 
	C136.423416,588.000122 145.670059,588.077881 154.914093,587.957092 
	C158.065018,587.915955 160.087128,588.738525 160.297150,592.230652 
	C160.527191,596.055847 159.317047,598.129700 154.968323,598.062622 
	C143.317505,597.882874 131.662094,598.000854 119.564819,597.995605 
z"/>
<path fill="#1AAABF" opacity="1.000000" stroke="none" 
	d="
M297.220581,543.994751 
	C308.024872,543.994629 318.359589,544.094727 328.690521,543.940002 
	C332.405914,543.884399 334.347168,545.057312 334.345856,549.005920 
	C334.344574,552.960999 332.388489,554.127686 328.679688,554.059937 
	C319.699280,553.895874 310.713837,554.006653 301.367126,554.006653 
	C301.367126,557.979797 301.367126,561.697693 301.367126,565.991394 
	C307.975281,565.991394 314.587372,566.132019 321.189545,565.937012 
	C324.971130,565.825378 326.945801,567.373169 326.945587,571.065186 
	C326.945404,574.861206 324.755859,576.162109 321.070251,576.054932 
	C314.600037,575.866760 308.120392,576.002319 301.324097,576.002319 
	C301.324097,580.020752 301.324097,583.737244 301.324097,587.994995 
	C310.403687,587.994995 319.357269,588.118713 328.304626,587.936646 
	C332.113983,587.859253 334.421936,588.782715 334.392029,593.083923 
	C334.361389,597.497986 331.785156,598.103882 328.117920,598.056091 
	C317.286591,597.914978 306.452209,598.023804 295.619080,597.998596 
	C289.681976,597.984741 288.030396,596.323181 288.008759,590.187866 
	C287.964783,577.688171 287.985870,565.188171 288.000580,552.688293 
	C288.009216,545.335510 289.333527,544.037659 297.220581,543.994751 
z"/>
<path fill="#1DABC0" opacity="1.000000" stroke="none" 
	d="
M258.757263,598.494873 
	C252.672134,596.919983 246.916229,595.576477 241.393265,593.586426 
	C239.589050,592.936279 238.111984,590.782471 236.971451,589.004517 
	C234.192047,584.671753 234.598999,580.914612 237.671600,579.521423 
	C242.163406,577.484741 245.790878,579.573547 248.412537,583.695496 
	C249.892609,586.022644 253.570267,588.021545 256.362091,588.166565 
	C259.643463,588.337097 263.691559,587.125000 266.190857,585.048584 
	C268.491150,583.137390 266.946259,579.978455 263.909088,578.860046 
	C259.399017,577.199158 254.763474,575.882507 250.220200,574.307129 
	C247.088074,573.221191 243.864410,572.242004 240.955673,570.698730 
	C232.519104,566.222351 231.196884,556.172424 237.961639,549.332031 
	C246.338058,540.861938 265.878998,540.781616 274.273010,549.249207 
	C275.426758,550.413147 276.599152,551.796570 277.118713,553.300842 
	C278.142700,556.265686 280.365173,559.700500 276.012604,561.951782 
	C271.694977,564.184998 267.227600,562.533752 265.489685,558.277649 
	C263.183929,552.630981 251.875290,550.863464 247.893738,555.527405 
	C245.591171,558.224609 246.268890,561.721741 249.842621,563.301880 
	C253.160446,564.768860 256.789917,565.513184 260.219849,566.748840 
	C264.742340,568.378296 269.450684,569.723511 273.637512,572.002258 
	C281.107880,576.068298 282.290131,584.670776 276.617188,591.059021 
	C272.001495,596.256714 265.836853,597.991455 258.757263,598.494873 
z"/>
<path fill="#576B7D" opacity="1.000000" stroke="none" 
	d="
M71.199226,596.020020 
	C67.779129,592.574768 64.342346,589.519043 61.798046,585.845154 
	C60.283184,583.657837 60.496410,580.640808 63.958313,579.356812 
	C68.019958,577.850281 72.712883,579.165283 73.947113,582.215088 
	C76.401604,588.280212 85.527802,590.776917 90.861183,586.842407 
	C93.938568,584.572144 93.969398,580.881165 90.509705,579.235657 
	C86.794968,577.468872 82.725647,576.450867 78.818893,575.083740 
	C75.067383,573.770996 71.141991,572.796570 67.615517,571.029724 
	C58.059025,566.241699 56.980484,554.977783 65.215561,548.147400 
	C73.710831,541.101257 90.869133,541.198181 99.224373,548.447998 
	C100.699791,549.728271 102.225380,551.277832 102.948547,553.025452 
	C104.207130,556.066956 106.542366,559.695312 101.845421,562.000916 
	C97.449249,564.158936 93.279343,562.475586 91.464859,558.107239 
	C89.181030,552.608948 77.623367,550.981201 73.798103,555.619141 
	C71.550415,558.344299 72.283562,561.813232 75.889008,563.323608 
	C79.537666,564.852173 83.477608,565.668945 87.224594,566.983826 
	C91.131248,568.354553 95.150398,569.588196 98.784966,571.514587 
	C107.794220,576.289734 108.787003,586.350159 100.795479,592.747192 
	C91.877487,599.885742 81.861458,599.785034 71.199226,596.020020 
z"/>
<path fill="#576B7D" opacity="1.000000" stroke="none" 
	d="
M210.396240,444.991882 
	C210.884583,447.937683 210.917236,450.899902 210.917374,454.288513 
	C199.747528,454.478546 188.522583,455.045532 177.490692,453.842438 
	C152.743225,451.143524 139.838181,424.429871 153.466888,404.823578 
	C159.822678,395.680145 168.962265,390.777222 179.995377,390.057037 
	C187.951874,389.537689 195.963501,389.863068 204.408112,389.799500 
	C204.899780,392.598724 204.933884,395.410065 204.914215,398.684753 
	C196.211288,399.315765 187.461121,398.712311 178.936325,399.829163 
	C165.657471,401.568848 156.457153,412.161346 157.343170,423.158569 
	C158.321899,435.306580 168.940720,444.659912 182.446243,444.962402 
	C191.606766,445.167572 200.775497,445.005859 210.396240,444.991882 
z"/>
<path fill="#1EABC0" opacity="1.000000" stroke="none" 
	d="
M433.085754,550.042725 
	C435.973572,543.407166 439.543518,541.483704 444.600372,543.559509 
	C447.128967,544.597351 448.306824,546.154480 447.032837,549.000671 
	C440.179016,564.312683 433.539185,579.724487 426.365845,594.884338 
	C425.483887,596.748291 421.808380,598.311768 419.517334,598.198364 
	C417.258698,598.086548 414.041748,596.177002 413.091949,594.178528 
	C406.387421,580.071655 400.154510,565.740601 393.782440,551.475952 
	C392.521515,548.653259 390.267029,545.688599 394.925507,543.681091 
	C398.966919,541.939514 403.497162,543.119873 405.190277,546.789246 
	C409.157715,555.387756 412.933380,564.074707 416.787323,572.725525 
	C417.705750,574.787109 418.626648,576.847534 420.021057,579.972107 
	C424.640625,569.414978 428.800720,559.907898 433.085754,550.042725 
z"/>
<path fill="#53697C" opacity="1.000000" stroke="none" 
	d="
M278.507355,513.907349 
	C285.431488,510.859497 292.816986,507.877350 300.558472,504.814056 
	C335.513794,504.732941 370.113098,504.732941 405.125641,504.732941 
	C405.125641,507.884735 405.125641,510.593323 405.125641,513.973083 
	C362.834503,513.973083 320.901611,513.973083 278.507355,513.907349 
z"/>
<path fill="#1EACC1" opacity="1.000000" stroke="none" 
	d="
M445.826385,170.925018 
	C445.826660,166.441544 445.888550,162.444778 445.808197,158.450851 
	C445.741821,155.152725 447.253204,153.423798 450.536102,153.399765 
	C456.695496,153.354675 462.856262,153.322739 469.014771,153.408035 
	C472.239197,153.452698 473.837921,155.272324 473.835175,158.505814 
	C473.830109,164.499252 473.848419,170.492706 473.840240,176.486130 
	C473.835358,180.059937 471.853485,181.540161 468.458252,181.536087 
	C463.463806,181.530106 458.469360,181.569427 453.474945,181.558182 
	C446.322144,181.542084 445.844788,181.052689 445.826752,173.910217 
	C445.824646,173.077789 445.826447,172.245377 445.826385,170.925018 
z"/>
<path fill="#1CABC0" opacity="1.000000" stroke="none" 
	d="
M473.837921,134.919220 
	C473.853088,146.011505 473.853088,146.010788 463.095123,146.002960 
	C459.100250,146.000046 455.103577,145.927200 451.111023,146.023239 
	C447.630554,146.106934 445.791870,144.712372 445.826324,141.063095 
	C445.884491,134.904892 445.868286,128.745621 445.833588,122.587067 
	C445.815887,119.442642 447.432556,118.022339 450.444244,118.010353 
	C456.602814,117.985832 462.761658,118.009590 468.920197,117.978767 
	C472.287323,117.961906 473.750153,119.806839 473.804718,122.951172 
	C473.871124,126.778542 473.831482,130.607742 473.837921,134.919220 
z"/>
<path fill="#1AAABF" opacity="1.000000" stroke="none" 
	d="
M453.994446,590.744263 
	C453.993896,576.805481 453.971832,563.338806 454.003387,549.872253 
	C454.015594,544.666748 455.784210,542.939575 460.769928,543.005432 
	C465.213898,543.064148 467.203217,544.883606 467.103607,549.733459 
	C466.820282,563.526794 467.006500,577.329651 467.002289,591.128784 
	C467.000458,597.104248 466.031891,598.239197 460.907898,598.317627 
	C455.431824,598.401428 454.163391,597.098511 453.994446,590.744263 
z"/>
<path fill="#22ADC1" opacity="1.000000" stroke="none" 
	d="
M499.685486,142.773468 
	C499.814606,146.184875 499.659454,149.186508 499.904449,152.155106 
	C500.236481,156.178177 498.819611,157.865845 494.578033,157.754852 
	C480.755249,157.393143 483.292999,159.383865 482.762665,146.256119 
	C482.566711,141.405441 484.501862,139.950638 488.815918,140.567276 
	C492.415100,141.081757 495.992432,141.749252 499.685486,142.773468 
z"/>
<path fill="#27AFC3" opacity="1.000000" stroke="none" 
	d="
M434.060059,165.876755 
	C435.973267,165.868149 437.437256,165.868149 439.637604,165.868149 
	C438.574707,169.551788 442.451538,174.092819 436.947327,175.658035 
	C434.794556,176.270233 429.971436,178.156906 429.586945,172.992752 
	C429.385956,170.293442 427.161835,165.286667 434.060059,165.876755 
z"/>
<path fill="#27AFC3" opacity="1.000000" stroke="none" 
	d="
M460.625854,509.058624 
	C461.297668,515.165039 457.076324,514.275024 454.093262,513.807800 
	C448.123352,512.872803 452.968964,508.100555 450.838379,505.683319 
	C457.907349,503.382660 460.016327,504.122467 460.625854,509.058624 
z"/>
<path fill="#22ADC1" opacity="1.000000" stroke="none" 
	d="
M415.177917,505.205505 
	C418.082367,504.946289 420.681854,504.946289 423.522125,504.946289 
	C423.664948,506.274750 423.760895,507.381042 423.906311,508.480774 
	C424.406433,512.263123 423.444366,514.049377 418.952148,514.080383 
	C414.168121,514.113464 414.416138,511.511932 414.568237,508.409027 
	C414.616455,507.424988 414.768402,506.445984 415.177917,505.205505 
z"/>
<path fill="#22ADC1" opacity="1.000000" stroke="none" 
	d="
M440.610046,513.743530 
	C438.040527,513.852356 435.902618,513.852356 433.378906,513.852356 
	C433.378906,510.754639 433.378906,508.028076 433.378906,504.924805 
	C436.068420,504.924805 438.807526,504.924805 442.439789,504.924805 
	C441.936218,508.061951 441.488953,510.848328 440.610046,513.743530 
z"/>
<path fill="#27AFC3" opacity="1.000000" stroke="none" 
	d="
M483.113403,120.361687 
	C482.951508,117.691383 482.951508,115.419571 482.951508,113.232521 
	C491.436615,111.155159 492.464478,112.101707 491.208435,121.376488 
	C488.605438,121.174263 485.940338,120.967216 483.113403,120.361687 
z"/>
<path fill="#27AFC3" opacity="1.000000" stroke="none" 
	d="
M494.627808,172.222137 
	C495.453735,174.965424 495.851318,177.591736 496.317719,180.672714 
	C492.932404,180.672714 490.383972,180.672714 487.863800,180.672714 
	C485.786407,172.650345 486.277954,171.998993 494.627808,172.222137 
z"/>
<path fill="#F9FCFC" opacity="1.000000" stroke="none" 
	d="
M633.178772,564.351562 
	C626.913940,565.296448 620.923340,565.936951 614.472595,566.626709 
	C614.472595,562.041260 614.472595,558.343140 614.472595,554.035400 
	C619.599792,554.035400 624.707153,553.727356 629.758606,554.126587 
	C634.329590,554.487793 635.796143,558.883484 633.178772,564.351562 
z"/>
<path fill="#F9FCFC" opacity="1.000000" stroke="none" 
	d="
M354.108276,558.142456 
	C353.916901,555.452759 354.200928,553.816895 357.158966,553.958435 
	C361.125183,554.148071 365.109314,553.926941 369.081787,554.032410 
	C372.972778,554.135681 374.805603,556.630310 374.778229,560.162720 
	C374.750153,563.786621 372.695923,565.987732 368.821289,565.995117 
	C364.188751,566.003906 359.556183,565.997192 354.110504,565.997192 
	C354.110504,563.401794 354.110504,561.003967 354.108276,558.142456 
z"/>
<path fill="#FDFEFE" opacity="1.000000" stroke="none" 
	d="
M493.252136,587.989014 
	C492.186157,587.018555 491.093658,586.064453 491.081696,585.096863 
	C490.956482,574.967834 491.004395,564.836548 491.004395,554.223022 
	C496.824097,554.223022 502.402008,554.221924 507.979889,554.228638 
	C508.140228,554.228821 508.300873,554.310730 508.460693,554.356934 
	C515.744202,556.462219 519.477478,564.880981 517.902161,575.647583 
	C516.753174,583.500061 511.852051,587.930359 504.207489,587.992310 
	C500.714294,588.020630 497.220673,587.998352 493.252136,587.989014 
z"/>
<path fill="#FBFDFD" opacity="1.000000" stroke="none" 
	d="
M578.947632,562.462524 
	C578.909119,568.543579 579.687195,574.472229 578.344543,579.873657 
	C576.907471,585.654602 571.631897,588.510681 565.662659,588.596497 
	C559.721130,588.682007 554.994385,585.940491 552.472168,580.388733 
	C549.576477,574.014954 549.524231,567.403748 552.514343,561.081848 
	C554.967590,555.895081 559.223633,552.992615 565.210022,552.990601 
	C571.808350,552.988403 576.155579,556.253906 578.947632,562.462524 
z"/>
</svg>