<svg xmlns="http://www.w3.org/2000/svg" xmlns:xlink="http://www.w3.org/1999/xlink" version="1.1" width="1080" height="1080" viewBox="0 0 1080 1080" xml:space="preserve">
<desc>Created with Fabric.js 3.5.0</desc>
<defs>
</defs>
<rect x="0" y="0" width="100%" height="100%" fill="#ffffff"/>
<g transform="matrix(54.7767 0 0 54.7767 539.9997 539.9997)" id="368858">
<g style="" vector-effect="non-scaling-stroke">
		<g transform="matrix(1 0 0 1 3.516 -0.099)" id="Capa_1">
<polygon style="stroke: none; stroke-width: 1; stroke-dasharray: none; stroke-linecap: butt; stroke-dashoffset: 0; stroke-linejoin: miter; stroke-miterlimit: 4; is-custom-font: none; font-file-url: none; fill: rgb(255,153,0); fill-rule: nonzero; opacity: 1;" points="-0.003,0.005 0.003,-0.004 0.002,-0.005 "/>
</g>
		<g transform="matrix(1 0 0 1 0 -0.0003)" id="Capa_1">
<path style="stroke: none; stroke-width: 1; stroke-dasharray: none; stroke-linecap: butt; stroke-dashoffset: 0; stroke-linejoin: miter; stroke-miterlimit: 4; is-custom-font: none; font-file-url: none; fill: rgb(255,153,0); fill-rule: nonzero; opacity: 1;" transform=" translate(-8.962, -8.9616)" d="M 17.211 10.107 c 0 0 -0.183 -0.249 -0.616 -0.415 c 0 0 -0.036 -0.011 -0.092 -0.029 c -0.386 -0.181 -0.752 -0.297 -0.752 -0.297 c -0.078 -0.028 -0.146 -0.056 -0.21 -0.083 c -0.261 -0.13 -0.45 -0.279 -0.45 -0.279 s -0.002 -0.002 -0.203 -0.203 c 0.361 -0.374 0.626 -0.882 0.709 -1.368 c 0.064 -0.066 0.129 -0.172 0.157 -0.341 c 0.052 -0.188 0.117 -0.517 0.002 -0.67 c -0.007 -0.008 -0.013 -0.015 -0.02 -0.022 c 0.108 -0.396 0.246 -1.214 -0.244 -1.772 c -0.044 -0.056 -0.318 -0.384 -0.906 -0.558 l -0.28 -0.097 c -0.463 -0.143 -0.754 -0.174 -0.766 -0.176 c -0.021 -0.002 -0.043 0 -0.063 0.005 c -0.016 0.005 -0.071 0.019 -0.113 0.013 c -0.111 -0.016 -0.277 0.041 -0.307 0.053 c -0.038 0.015 -0.934 0.374 -1.205 1.208 c -0.025 0.067 -0.134 0.422 0.01 1.292 c -0.021 0.014 -0.04 0.032 -0.058 0.054 c -0.116 0.153 -0.051 0.48 0.002 0.669 c 0.027 0.167 0.092 0.272 0.155 0.339 c 0.072 0.48 0.302 0.942 0.605 1.296 c 0 0 0.23 0.398 0.259 0.435 c 0.729 1.08 0.821 3.162 0.83 3.396 l 0.001 0.015 l -0.001 0.016 c -0.012 0.728 -0.374 0.981 -0.568 1.065 c -0.094 0.042 -0.192 0.079 -0.291 0.117 c 0.049 -0.072 0.097 -0.197 0.1 -0.418 c 0 0 -0.071 -3.059 -0.688 -3.972 c 0 0 -0.176 -0.24 -0.593 -0.399 c 0 0 -0.034 -0.011 -0.089 -0.028 c -0.37 -0.174 -0.722 -0.285 -0.722 -0.285 c -0.075 -0.027 -0.142 -0.053 -0.202 -0.08 c -0.25 -0.125 -0.433 -0.268 -0.433 -0.268 s -0.002 -0.002 -0.195 -0.196 c 0.347 -0.36 0.602 -0.848 0.681 -1.314 c 0.063 -0.063 0.125 -0.166 0.152 -0.328 c 0.049 -0.181 0.112 -0.497 0.001 -0.644 c -0.006 -0.007 -0.012 -0.014 -0.018 -0.021 c 0.104 -0.381 0.236 -1.167 -0.235 -1.704 c -0.043 -0.053 -0.307 -0.369 -0.871 -0.536 l -0.27 -0.092 C 8.97 3.348 8.69 3.317 8.678 3.316 c -0.02 -0.002 -0.041 0 -0.061 0.006 C 8.601 3.326 8.549 3.34 8.508 3.335 c -0.106 -0.016 -0.266 0.039 -0.294 0.05 C 8.178 3.399 7.317 3.744 7.056 4.546 c -0.024 0.065 -0.128 0.406 0.01 1.242 C 7.045 5.802 7.027 5.819 7.011 5.84 C 6.9 5.986 6.963 6.302 7.012 6.483 c 0.027 0.161 0.089 0.263 0.15 0.326 c 0.069 0.461 0.29 0.906 0.582 1.246 L 7.661 8.182 L 7.659 8.174 L 7.656 8.191 C 7.657 8.188 7.659 8.184 7.66 8.182 v 0.001 L 7.655 8.191 C 7.538 8.556 6.137 8.982 6.137 8.982 C 5.721 9.141 5.545 9.381 5.545 9.381 c -0.616 0.913 -0.688 3.971 -0.688 3.971 c 0.003 0.219 0.05 0.342 0.097 0.414 c -0.095 -0.035 -0.192 -0.071 -0.283 -0.111 c -0.194 -0.084 -0.557 -0.339 -0.568 -1.066 v -0.016 v -0.016 c 0.009 -0.234 0.102 -2.314 0.817 -3.376 c 0.039 -0.054 0.167 -0.214 0.403 -0.379 c 0 0 0 -0.001 -0.001 -0.001 c 0.361 -0.374 0.626 -0.882 0.709 -1.368 C 6.095 7.367 6.16 7.261 6.189 7.092 c 0.052 -0.188 0.117 -0.517 0.001 -0.67 C 6.184 6.414 6.177 6.407 6.171 6.4 c 0.108 -0.396 0.246 -1.214 -0.244 -1.772 C 5.886 4.572 5.611 4.244 5.023 4.07 l -0.28 -0.097 C 4.28 3.83 3.989 3.799 3.977 3.797 c -0.021 -0.002 -0.043 0 -0.063 0.005 C 3.898 3.808 3.843 3.822 3.8 3.816 C 3.69 3.8 3.524 3.857 3.494 3.869 C 3.456 3.883 2.561 4.242 2.289 5.077 c -0.025 0.067 -0.133 0.422 0.01 1.292 C 2.278 6.383 2.258 6.401 2.241 6.423 c -0.116 0.153 -0.05 0.48 0.001 0.669 c 0.027 0.167 0.092 0.272 0.155 0.339 c 0.072 0.48 0.302 0.942 0.606 1.296 L 2.917 8.859 L 2.915 8.85 L 2.911 8.868 c 0.001 -0.003 0.004 -0.007 0.005 -0.01 v 0.001 L 2.911 8.868 C 2.79 9.248 1.332 9.691 1.332 9.691 c -0.433 0.166 -0.616 0.415 -0.616 0.415 C 0.075 11.056 0 13.171 0 13.171 c 0.008 0.482 0.217 0.533 0.217 0.533 c 1.473 0.657 3.785 0.773 3.785 0.773 c 0.125 0.004 0.24 -0.003 0.356 -0.01 l 0.003 0.012 c 0 0 0.87 -0.045 1.881 -0.23 c 1.219 0.295 2.46 0.358 2.46 0.358 c 0.119 0.003 0.231 -0.004 0.342 -0.011 l 0.003 0.012 c 0 0 1.295 -0.066 2.538 -0.379 c 1.053 0.201 1.979 0.248 1.979 0.248 c 0.124 0.004 0.24 -0.003 0.356 -0.01 l 0.003 0.012 c 0 0 2.312 -0.117 3.785 -0.773 c 0 0 0.208 -0.051 0.216 -0.534 C 17.927 13.173 17.852 11.058 17.211 10.107 z" stroke-linecap="round"/>
</g>
</g>
</g>
<g transform="matrix(54.7767 0 0 54.7767 552.0585 548.8821)" id="858546">
<g style="" vector-effect="non-scaling-stroke">
		<g transform="matrix(1 0 0 1 3.516 -0.099)" id="Capa_1">
<polygon style="stroke: none; stroke-width: 1; stroke-dasharray: none; stroke-linecap: butt; stroke-dashoffset: 0; stroke-linejoin: miter; stroke-miterlimit: 4; is-custom-font: none; font-file-url: none; fill: rgb(255,153,0); fill-opacity: 0.42; fill-rule: nonzero; opacity: 1;" points="-0.003,0.005 0.003,-0.004 0.002,-0.005 "/>
</g>
		<g transform="matrix(1 0 0 1 0 -0.0003)" id="Capa_1">
<path style="stroke: none; stroke-width: 1; stroke-dasharray: none; stroke-linecap: butt; stroke-dashoffset: 0; stroke-linejoin: miter; stroke-miterlimit: 4; is-custom-font: none; font-file-url: none; fill: rgb(255,153,0); fill-opacity: 0.42; fill-rule: nonzero; opacity: 1;" transform=" translate(-8.962, -8.9616)" d="M 17.211 10.107 c 0 0 -0.183 -0.249 -0.616 -0.415 c 0 0 -0.036 -0.011 -0.092 -0.029 c -0.386 -0.181 -0.752 -0.297 -0.752 -0.297 c -0.078 -0.028 -0.146 -0.056 -0.21 -0.083 c -0.261 -0.13 -0.45 -0.279 -0.45 -0.279 s -0.002 -0.002 -0.203 -0.203 c 0.361 -0.374 0.626 -0.882 0.709 -1.368 c 0.064 -0.066 0.129 -0.172 0.157 -0.341 c 0.052 -0.188 0.117 -0.517 0.002 -0.67 c -0.007 -0.008 -0.013 -0.015 -0.02 -0.022 c 0.108 -0.396 0.246 -1.214 -0.244 -1.772 c -0.044 -0.056 -0.318 -0.384 -0.906 -0.558 l -0.28 -0.097 c -0.463 -0.143 -0.754 -0.174 -0.766 -0.176 c -0.021 -0.002 -0.043 0 -0.063 0.005 c -0.016 0.005 -0.071 0.019 -0.113 0.013 c -0.111 -0.016 -0.277 0.041 -0.307 0.053 c -0.038 0.015 -0.934 0.374 -1.205 1.208 c -0.025 0.067 -0.134 0.422 0.01 1.292 c -0.021 0.014 -0.04 0.032 -0.058 0.054 c -0.116 0.153 -0.051 0.48 0.002 0.669 c 0.027 0.167 0.092 0.272 0.155 0.339 c 0.072 0.48 0.302 0.942 0.605 1.296 c 0 0 0.23 0.398 0.259 0.435 c 0.729 1.08 0.821 3.162 0.83 3.396 l 0.001 0.015 l -0.001 0.016 c -0.012 0.728 -0.374 0.981 -0.568 1.065 c -0.094 0.042 -0.192 0.079 -0.291 0.117 c 0.049 -0.072 0.097 -0.197 0.1 -0.418 c 0 0 -0.071 -3.059 -0.688 -3.972 c 0 0 -0.176 -0.24 -0.593 -0.399 c 0 0 -0.034 -0.011 -0.089 -0.028 c -0.37 -0.174 -0.722 -0.285 -0.722 -0.285 c -0.075 -0.027 -0.142 -0.053 -0.202 -0.08 c -0.25 -0.125 -0.433 -0.268 -0.433 -0.268 s -0.002 -0.002 -0.195 -0.196 c 0.347 -0.36 0.602 -0.848 0.681 -1.314 c 0.063 -0.063 0.125 -0.166 0.152 -0.328 c 0.049 -0.181 0.112 -0.497 0.001 -0.644 c -0.006 -0.007 -0.012 -0.014 -0.018 -0.021 c 0.104 -0.381 0.236 -1.167 -0.235 -1.704 c -0.043 -0.053 -0.307 -0.369 -0.871 -0.536 l -0.27 -0.092 C 8.97 3.348 8.69 3.317 8.678 3.316 c -0.02 -0.002 -0.041 0 -0.061 0.006 C 8.601 3.326 8.549 3.34 8.508 3.335 c -0.106 -0.016 -0.266 0.039 -0.294 0.05 C 8.178 3.399 7.317 3.744 7.056 4.546 c -0.024 0.065 -0.128 0.406 0.01 1.242 C 7.045 5.802 7.027 5.819 7.011 5.84 C 6.9 5.986 6.963 6.302 7.012 6.483 c 0.027 0.161 0.089 0.263 0.15 0.326 c 0.069 0.461 0.29 0.906 0.582 1.246 L 7.661 8.182 L 7.659 8.174 L 7.656 8.191 C 7.657 8.188 7.659 8.184 7.66 8.182 v 0.001 L 7.655 8.191 C 7.538 8.556 6.137 8.982 6.137 8.982 C 5.721 9.141 5.545 9.381 5.545 9.381 c -0.616 0.913 -0.688 3.971 -0.688 3.971 c 0.003 0.219 0.05 0.342 0.097 0.414 c -0.095 -0.035 -0.192 -0.071 -0.283 -0.111 c -0.194 -0.084 -0.557 -0.339 -0.568 -1.066 v -0.016 v -0.016 c 0.009 -0.234 0.102 -2.314 0.817 -3.376 c 0.039 -0.054 0.167 -0.214 0.403 -0.379 c 0 0 0 -0.001 -0.001 -0.001 c 0.361 -0.374 0.626 -0.882 0.709 -1.368 C 6.095 7.367 6.16 7.261 6.189 7.092 c 0.052 -0.188 0.117 -0.517 0.001 -0.67 C 6.184 6.414 6.177 6.407 6.171 6.4 c 0.108 -0.396 0.246 -1.214 -0.244 -1.772 C 5.886 4.572 5.611 4.244 5.023 4.07 l -0.28 -0.097 C 4.28 3.83 3.989 3.799 3.977 3.797 c -0.021 -0.002 -0.043 0 -0.063 0.005 C 3.898 3.808 3.843 3.822 3.8 3.816 C 3.69 3.8 3.524 3.857 3.494 3.869 C 3.456 3.883 2.561 4.242 2.289 5.077 c -0.025 0.067 -0.133 0.422 0.01 1.292 C 2.278 6.383 2.258 6.401 2.241 6.423 c -0.116 0.153 -0.05 0.48 0.001 0.669 c 0.027 0.167 0.092 0.272 0.155 0.339 c 0.072 0.48 0.302 0.942 0.606 1.296 L 2.917 8.859 L 2.915 8.85 L 2.911 8.868 c 0.001 -0.003 0.004 -0.007 0.005 -0.01 v 0.001 L 2.911 8.868 C 2.79 9.248 1.332 9.691 1.332 9.691 c -0.433 0.166 -0.616 0.415 -0.616 0.415 C 0.075 11.056 0 13.171 0 13.171 c 0.008 0.482 0.217 0.533 0.217 0.533 c 1.473 0.657 3.785 0.773 3.785 0.773 c 0.125 0.004 0.24 -0.003 0.356 -0.01 l 0.003 0.012 c 0 0 0.87 -0.045 1.881 -0.23 c 1.219 0.295 2.46 0.358 2.46 0.358 c 0.119 0.003 0.231 -0.004 0.342 -0.011 l 0.003 0.012 c 0 0 1.295 -0.066 2.538 -0.379 c 1.053 0.201 1.979 0.248 1.979 0.248 c 0.124 0.004 0.24 -0.003 0.356 -0.01 l 0.003 0.012 c 0 0 2.312 -0.117 3.785 -0.773 c 0 0 0.208 -0.051 0.216 -0.534 C 17.927 13.173 17.852 11.058 17.211 10.107 z" stroke-linecap="round"/>
</g>
</g>
</g>
</svg>