<svg id="Layer_1" data-name="Layer 1" xmlns="http://www.w3.org/2000/svg" viewBox="0 0 359.65 367.6"><defs><style>.cls-1{fill:#fff;}.cls-2{fill:#e4e7eb;}.cls-3{fill:#eb9025;}.cls-4{fill:#3d3d3d;}.cls-5{fill:#a7a9ac;}.cls-6{fill:none;}</style></defs><title>logo_final</title><rect class="cls-1" width="359.65" height="367.6" rx="13.2"/><rect class="cls-2" x="16.66" y="16.71" width="326.65" height="236.06" rx="12"/><path class="cls-3" d="M133.24,274.36H39.53a12,12,0,0,0-12,12v60.12a12,12,0,0,0,12,12h64.75Z" transform="translate(-10.87 -7.59)"/><path class="cls-4" d="M342.18,274.36H149.11l-29,84.12h222a12,12,0,0,0,12-12V286.36A12,12,0,0,0,342.18,274.36Z" transform="translate(-10.87 -7.59)"/><polygon class="cls-1" points="146.54 37.2 133.83 33.01 196.97 252.76 231.35 252.76 146.54 37.2"/><polygon class="cls-4" points="153.35 88.22 153.35 88.11 153.33 88.13 151.39 81.88 151.4 81.59 151.32 81.65 137.54 37.2 133.83 35.01 142.26 63.63 16.66 95.06 16.66 105.74 143.15 66.65 144.22 70.28 16.66 121.2 16.66 134.71 145.16 73.47 145.98 76.28 16.66 149.76 16.66 162.62 147.08 80 148.21 83.84 16.66 176.65 16.66 188.24 148.98 86.45 150.25 90.77 17.07 204.95 30.36 204.72 151.23 94.08 152.82 99.48 47.21 204.37 61.78 203.87 154.02 103.55 155.68 109.21 77.89 203.07 89.72 203.28 156.66 112.54 158.17 117.65 103.5 203.34 115.72 202.02 159.21 121.19 197.97 252.76 204.35 252.76 153.35 88.22"/><polygon class="cls-4" points="149.25 54.88 203.65 66.41 194.3 86.93 152.09 65.99 149.25 54.88"/><path class="cls-1" d="M56.28,326.61,56,324.84a8.9,8.9,0,0,1-2.7,1.63,8,8,0,0,1-2.94.58,5.39,5.39,0,0,1-3.86-1.37,5.36,5.36,0,0,1,.32-7.65,7.17,7.17,0,0,1,4.76-1.48,17.59,17.59,0,0,1,4.29.58v-2.25A3.33,3.33,0,0,0,55,312.3a4.22,4.22,0,0,0-2.84-.75,18.58,18.58,0,0,0-6,1.05v-2.38a11.26,11.26,0,0,1,3-1,17.87,17.87,0,0,1,3.57-.36,7,7,0,0,1,4.76,1.35,5.15,5.15,0,0,1,1.53,4.09v12.31Zm-5.1-2.11a8,8,0,0,0,4.7-1.73V319.3a15.05,15.05,0,0,0-3.61-.44c-2.56,0-3.84,1-3.84,3a2.69,2.69,0,0,0,.71,2A2.83,2.83,0,0,0,51.18,324.5Z" transform="translate(-10.87 -7.59)"/><path class="cls-1" d="M77.7,326.61,74,313.11l-3.64,13.5H67l-5.64-17.24h3.54l3.87,13.81,3.67-13.81H75.8l3.67,14,4-14h3.43L81.1,326.61Z" transform="translate(-10.87 -7.59)"/><path class="cls-1" d="M97.8,322a1.77,1.77,0,0,0-.53-1.33,5.66,5.66,0,0,0-1.92-1l-2.89-1.09c-2.52-.93-3.77-2.51-3.77-4.76a4.35,4.35,0,0,1,1.71-3.57,7.11,7.11,0,0,1,4.51-1.36A12.08,12.08,0,0,1,100,310v2.38a16,16,0,0,0-4.89-.85c-2.18,0-3.27.74-3.27,2.21a1.79,1.79,0,0,0,.55,1.39,7,7,0,0,0,2.14,1.13l2.65,1a7,7,0,0,1,2.89,1.85,4.21,4.21,0,0,1,.89,2.77,4.65,4.65,0,0,1-1.81,3.84,7.45,7.45,0,0,1-4.79,1.43,12.55,12.55,0,0,1-5.85-1.29v-2.38a19,19,0,0,0,5.92,1.05,4.2,4.2,0,0,0,2.53-.64A2.19,2.19,0,0,0,97.8,322Z" transform="translate(-10.87 -7.59)"/><path class="cls-5" d="M216.41,297.86h3.15v9.22a5.52,5.52,0,0,1-1.56,4.2,7.38,7.38,0,0,1-8.88,0,5.5,5.5,0,0,1-1.57-4.23v-9.2h3.15v9.35a3.13,3.13,0,0,0,.74,2.24,3.34,3.34,0,0,0,4.24,0,3.13,3.13,0,0,0,.73-2.24Z" transform="translate(-10.87 -7.59)"/><path class="cls-5" d="M225.67,306.05a6.1,6.1,0,0,1-2.68-1.69,4.2,4.2,0,0,1,.64-5.68,6.07,6.07,0,0,1,3.91-1.17,11.29,11.29,0,0,1,4,.75v2.4a12.87,12.87,0,0,0-3.78-.63c-1.66,0-2.48.53-2.48,1.59a1.21,1.21,0,0,0,.43,1,5.26,5.26,0,0,0,1.6.8l1.56.56a6.79,6.79,0,0,1,2.78,1.67,3.69,3.69,0,0,1,.83,2.49,4.15,4.15,0,0,1-1.55,3.41,6.6,6.6,0,0,1-4.27,1.25,12.54,12.54,0,0,1-2.35-.22,8.73,8.73,0,0,1-2-.59v-2.4a16,16,0,0,0,2.24.5,13.57,13.57,0,0,0,2.17.19,3.44,3.44,0,0,0,1.91-.45,1.48,1.48,0,0,0,.67-1.29,1.35,1.35,0,0,0-.41-1,5.48,5.48,0,0,0-1.65-.84Z" transform="translate(-10.87 -7.59)"/><path class="cls-5" d="M235.12,312.42V297.86h9.58v2.44h-6.43v3.44h5.23v2.44h-5.23V310h6.43v2.44Z" transform="translate(-10.87 -7.59)"/><path class="cls-5" d="M247.26,312.42V297.86h5.61a5.14,5.14,0,0,1,3.59,1.2,4.18,4.18,0,0,1,1.32,3.26,3.89,3.89,0,0,1-.69,2.26,4.53,4.53,0,0,1-1.95,1.58l3.61,6.26h-3.26l-3.15-5.65h-2.05v5.65Zm3-7.84h2.18a2,2,0,0,0,2.2-2.22,1.92,1.92,0,0,0-2.16-2.19h-2.22Z" transform="translate(-10.87 -7.59)"/><path class="cls-5" d="M273.47,310.17a11.81,11.81,0,0,0,1.55-.11v-3.54h-2.73v-2.27h5.63v7.29a8.87,8.87,0,0,1-2.35.81,12.84,12.84,0,0,1-2.77.3,6.93,6.93,0,0,1-5.24-1.91,7.53,7.53,0,0,1-1.84-5.44,7.87,7.87,0,0,1,1.9-5.7,7.33,7.33,0,0,1,5.51-2,9.79,9.79,0,0,1,4.27.86v2.4a13.28,13.28,0,0,0-3.93-.7,4.47,4.47,0,0,0-3.42,1.17A5.22,5.22,0,0,0,269,305v.38A5.16,5.16,0,0,0,270,309,4.53,4.53,0,0,0,273.47,310.17Z" transform="translate(-10.87 -7.59)"/><path class="cls-5" d="M281,312.42V297.86h5.61a5.14,5.14,0,0,1,3.59,1.2,4.18,4.18,0,0,1,1.32,3.26,3.89,3.89,0,0,1-.69,2.26,4.56,4.56,0,0,1-2,1.58l3.62,6.26h-3.26l-3.15-5.65h-2.06v5.65Zm3-7.84h2.19a2,2,0,0,0,2.2-2.22,1.92,1.92,0,0,0-2.16-2.19h-2.23Z" transform="translate(-10.87 -7.59)"/><path class="cls-5" d="M293.57,305.13a9.09,9.09,0,0,1,.83-4,6,6,0,0,1,2.43-2.66,8.33,8.33,0,0,1,7.59,0,6.06,6.06,0,0,1,2.47,2.61,9,9,0,0,1,.87,4.11,9.09,9.09,0,0,1-.83,4,6.05,6.05,0,0,1-2.43,2.67,8.29,8.29,0,0,1-7.59,0,6.08,6.08,0,0,1-2.47-2.62A9,9,0,0,1,293.57,305.13Zm3.23,0a6.17,6.17,0,0,0,1,3.78,3.83,3.83,0,0,0,5.75,0,7.69,7.69,0,0,0,0-7.55,3.85,3.85,0,0,0-5.75,0A6.12,6.12,0,0,0,296.8,305.13Z" transform="translate(-10.87 -7.59)"/><path class="cls-5" d="M319.48,297.86h3.15v9.22a5.52,5.52,0,0,1-1.56,4.2,7.4,7.4,0,0,1-8.89,0,5.53,5.53,0,0,1-1.56-4.23v-9.2h3.15v9.35a3.13,3.13,0,0,0,.73,2.24,3.35,3.35,0,0,0,4.25,0,3.13,3.13,0,0,0,.73-2.24Z" transform="translate(-10.87 -7.59)"/><path class="cls-5" d="M329,307.1v5.32h-3.06V297.86h5.56a5.07,5.07,0,0,1,3.59,1.24,5,5,0,0,1,0,6.77,5.06,5.06,0,0,1-3.59,1.23Zm0-2.35h2.14a2.12,2.12,0,0,0,1.61-.58,2.33,2.33,0,0,0,.56-1.69,2.36,2.36,0,0,0-.56-1.69,2.15,2.15,0,0,0-1.61-.57H329Z" transform="translate(-10.87 -7.59)"/><path class="cls-1" d="M176,331.54a7.67,7.67,0,0,1-3.33-2.09,5.23,5.23,0,0,1,.79-7,7.52,7.52,0,0,1,4.85-1.45,13.92,13.92,0,0,1,5,.93v3a15.9,15.9,0,0,0-4.68-.78c-2,0-3.06.66-3.06,2a1.5,1.5,0,0,0,.53,1.2,6.64,6.64,0,0,0,2,1l1.92.7a8.36,8.36,0,0,1,3.45,2.07,4.52,4.52,0,0,1,1,3.08,5.13,5.13,0,0,1-1.92,4.22,8.2,8.2,0,0,1-5.28,1.55,15.92,15.92,0,0,1-2.91-.27,11.81,11.81,0,0,1-2.5-.74v-3a20.61,20.61,0,0,0,2.78.62,17,17,0,0,0,2.68.24,4.26,4.26,0,0,0,2.37-.56,1.82,1.82,0,0,0,.83-1.6,1.63,1.63,0,0,0-.51-1.27,6.58,6.58,0,0,0-2-1Z" transform="translate(-10.87 -7.59)"/><path class="cls-1" d="M196.59,339.42l-1.27-4.11h-6.16l-1.23,4.11h-4.08l6.35-18h4.29l6.34,18Zm-2.52-21.92q.57,0,.6-.75l.05-.89h2.11a7.19,7.19,0,0,1,.07,1,2.58,2.58,0,0,1-.76,1.95,2.86,2.86,0,0,1-2,.72,3.39,3.39,0,0,1-2.45-1,5.54,5.54,0,0,0-.73-.61.87.87,0,0,0-.49-.14q-.57,0-.6.75l-.05.89h-2.11a7.19,7.19,0,0,1-.07-1,2.58,2.58,0,0,1,.76-1.95,2.89,2.89,0,0,1,2-.73,3.34,3.34,0,0,1,2.45,1,5.54,5.54,0,0,0,.73.61A1,1,0,0,0,194.07,317.5Zm-4.08,15h4.52L192.22,325Z" transform="translate(-10.87 -7.59)"/><path class="cls-1" d="M199.82,330.4a11.47,11.47,0,0,1,1-5,7.52,7.52,0,0,1,3-3.29,10.3,10.3,0,0,1,9.4,0,7.51,7.51,0,0,1,3.05,3.23,11.12,11.12,0,0,1,1.08,5.09,11.46,11.46,0,0,1-1,5,7.55,7.55,0,0,1-3,3.3,10.22,10.22,0,0,1-9.4.05,7.44,7.44,0,0,1-3-3.25A11.15,11.15,0,0,1,199.82,330.4Zm4,0a7.7,7.7,0,0,0,1.22,4.68,4.75,4.75,0,0,0,7.13,0,7.7,7.7,0,0,0,1.22-4.68,7.61,7.61,0,0,0-1.22-4.67,4.77,4.77,0,0,0-7.13,0A7.61,7.61,0,0,0,203.82,330.4Z" transform="translate(-10.87 -7.59)"/><path class="cls-1" d="M227.74,332.84v6.58h-3.8v-18h6.89a6.25,6.25,0,0,1,4.45,1.53,6.17,6.17,0,0,1,0,8.38,6.25,6.25,0,0,1-4.45,1.53Zm0-2.91h2.65a2.62,2.62,0,0,0,2-.72,3.51,3.51,0,0,0,0-4.18,2.62,2.62,0,0,0-2-.72h-2.65Z" transform="translate(-10.87 -7.59)"/><path class="cls-1" d="M247.34,339.42l-1.27-4.11h-6.16l-1.22,4.11H234.6l6.35-18h4.29l6.34,18Zm-6.6-6.92h4.52L243,325Z" transform="translate(-10.87 -7.59)"/><path class="cls-1" d="M262,321.4h3.9v11.41a6.84,6.84,0,0,1-1.94,5.2,9.14,9.14,0,0,1-11,0,6.89,6.89,0,0,1-1.94-5.24V321.4h3.9V333a3.88,3.88,0,0,0,.91,2.77,4.12,4.12,0,0,0,5.26,0A3.88,3.88,0,0,0,262,333Z" transform="translate(-10.87 -7.59)"/><path class="cls-1" d="M268,339.42v-18h3.9v14.9h7.91v3.12Z" transform="translate(-10.87 -7.59)"/><path class="cls-1" d="M279.22,330.4a11.33,11.33,0,0,1,1-5,7.5,7.5,0,0,1,3-3.29,10.3,10.3,0,0,1,9.4,0,7.53,7.53,0,0,1,3.06,3.23,11.12,11.12,0,0,1,1.08,5.09,11.46,11.46,0,0,1-1,5,7.55,7.55,0,0,1-3,3.3,10.22,10.22,0,0,1-9.4.05,7.56,7.56,0,0,1-3.05-3.25A11.15,11.15,0,0,1,279.22,330.4Zm4,0a7.63,7.63,0,0,0,1.23,4.68,4.74,4.74,0,0,0,7.12,0,7.7,7.7,0,0,0,1.22-4.68,7.61,7.61,0,0,0-1.22-4.67,4.76,4.76,0,0,0-7.12,0A7.54,7.54,0,0,0,283.22,330.4Z" transform="translate(-10.87 -7.59)"/><path class="cls-1" d="M296.51,343.55l1.53-8.14h1.1a3.75,3.75,0,0,1,1.82.33,1.16,1.16,0,0,1,.54,1.08,4.9,4.9,0,0,1-.47,1.71l-2,5Z" transform="translate(-10.87 -7.59)"/><path class="cls-1" d="M308.26,339.42v-18h6.48a6.3,6.3,0,0,1,4.19,1.33,4.25,4.25,0,0,1,1.6,3.45,4.09,4.09,0,0,1-.61,2.28,4,4,0,0,1-1.8,1.47,4.85,4.85,0,0,1,2.53,1.62,4.43,4.43,0,0,1,.87,2.77,4.5,4.5,0,0,1-1.74,3.72,7.32,7.32,0,0,1-4.68,1.38ZM312,324.18v4.73h2.27q2.52,0,2.52-2.34a2.08,2.08,0,0,0-2.32-2.39Zm0,7.38v5.07H315c1.77,0,2.65-.83,2.65-2.49s-.94-2.58-2.83-2.58Z" transform="translate(-10.87 -7.59)"/><path class="cls-1" d="M322.74,339.42v-18h6.94a6.36,6.36,0,0,1,4.45,1.48,5.17,5.17,0,0,1,1.64,4,4.86,4.86,0,0,1-.86,2.81,5.7,5.7,0,0,1-2.42,1.95l4.47,7.75h-4l-3.89-7h-2.55v7Zm3.75-9.7h2.7a2.43,2.43,0,0,0,2.73-2.76,2.38,2.38,0,0,0-2.68-2.7h-2.75Z" transform="translate(-10.87 -7.59)"/><polygon class="cls-1" points="225.94 33.01 207.1 40.44 103.56 252.76 133.83 252.76 225.94 33.01"/><polygon class="cls-1" points="343.31 215.56 343.31 193.79 16.66 203.03 16.35 215.56 343.31 215.56"/><polygon class="cls-6" points="261.71 196.1 193.01 111.86 191.3 115.97 248.12 196.48 261.71 196.1"/><polygon class="cls-6" points="315.63 194.57 200.09 94.93 197.78 100.46 303.87 194.91 315.63 194.57"/><polygon class="cls-6" points="289.62 195.31 196.67 103.12 194.11 109.24 274.98 195.72 289.62 195.31"/><polygon class="cls-4" points="343.52 188.43 343.52 176.84 204.22 85.04 203.09 87.74 343.52 188.43"/><polygon class="cls-4" points="343.52 162.81 343.52 149.95 207.24 77.8 205.78 81.3 343.52 162.81"/><polygon class="cls-4" points="343.52 134.9 343.52 121.39 210.04 71.1 208.6 74.54 343.52 134.9"/><polygon class="cls-4" points="343.52 105.93 343.52 95.25 212.46 65.3 211.12 68.52 343.52 105.93"/><polygon class="cls-4" points="332.33 194.1 201.19 92.28 200.09 94.93 315.63 194.57 303.87 194.91 197.78 100.46 196.67 103.12 289.62 195.31 274.98 195.72 194.11 109.24 193.01 111.86 261.71 196.1 248.12 196.48 191.3 115.97 190.26 118.47 237.4 196.79 136.23 199.65 208.43 42.24 205.1 43.53 129.27 199.84 16.66 203.03 16.35 205.56 343.31 200.56 343.31 193.79 332.33 194.1"/><polygon class="cls-4" points="121.61 215.65 103.56 252.85 111.83 252.85 128.89 215.65 121.61 215.65"/><path id="Path" class="cls-4" d="M279.45,188l22,41.21L283.7,247.22h-8.5l-17.75-18.06,22-41.21m-15.87,10.34-11.12,31.8,22.27,23.11h9.45l23.27-24L294.4,199.28l-15-22Z" transform="translate(-10.87 -7.59)"/><polygon id="Path-2" data-name="Path" class="cls-3" points="290.58 221.57 272.83 239.63 264.33 239.63 246.58 221.57 256.52 195.2 268.58 180.36 279.32 193.72 290.58 221.57 290.58 221.57"/><path id="Path-3" data-name="Path" class="cls-1" d="M283.7,244.22v16.14h-8.5V244.22c1.37.11,2.8.16,4.25.16S282.32,244.33,283.7,244.22Z" transform="translate(-10.87 -7.59)"/><path class="cls-4" d="M76.46,208.81l17.7,17.7L79.5,244l-3,.26-3-.26-10.68-6.27-4-11.17L70,210l6.45-1.21M60.2,205.36l-8.44,19.15,4.12,14.34,15.69,10,4.89.33,6.89-.33,20.81-22.37-23.7-24.7-9-1Z" transform="translate(-10.87 -7.59)"/><polygon class="cls-3" points="65.59 197.22 52.14 202.43 44.89 218.92 49.87 230.09 61.55 238.36 64.59 238.62 69.63 238.36 87.29 218.92 65.59 197.22"/><path class="cls-1" d="M74.46,238.21a17.9,17.9,0,0,1-3-.26l1,22.49H80.5L79.5,238A49.29,49.29,0,0,1,74.46,238.21Z" transform="translate(-10.87 -7.59)"/><path class="cls-4" d="M309.3,214l15.93,15.93L312,245.62l-2.74.23-2.73-.23L297,240l-3.59-10.06,10.13-14.84,5.8-1.09m-14.64-3.1-7.59,17.23,3.7,12.91,14.13,9,4.4.3,6.2-.29,18.73-20.14L312.9,207.69l-8.1-.9Z" transform="translate(-10.87 -7.59)"/><polygon class="cls-3" points="286.13 207.49 280.5 222.33 284.08 232.39 295.69 238.03 298.43 238.26 301.17 238.03 316.36 222.33 300.43 204.4 286.13 207.49"/><path class="cls-1" d="M307.5,240.45a16.4,16.4,0,0,1-2.73-.23l.9,20.24h7.27l-.9-20.24A45.24,45.24,0,0,1,307.5,240.45Z" transform="translate(-10.87 -7.59)"/><path class="cls-3" d="M62,109.15A19.26,19.26,0,0,1,51.18,74a23,23,0,0,1,44-8,22.86,22.86,0,1,1,10.57,43.13Z" transform="translate(-10.87 -7.59)"/><path class="cls-2" d="M74.12,55.25A20,20,0,0,1,93.05,68.81l.57,1.66,1.48-.94a19.86,19.86,0,1,1,10.65,36.62H62A16.27,16.27,0,0,1,53.49,76l.64-.4v-.75a20.08,20.08,0,0,1,20-19.64m0-6A26.13,26.13,0,0,0,48.3,72.35,22.27,22.27,0,0,0,62,112.15h43.72a25.86,25.86,0,1,0-9.19-50A26,26,0,0,0,74.12,49.25Z" transform="translate(-10.87 -7.59)"/><path class="cls-4" d="M49.43,92.79A16.19,16.19,0,0,1,57.15,79l.64-.39,0-.76C58,67,66,61,72.79,59.16c9-2.39,17,6.4,18.93,12.56l.56,1.67,1.48-1c3.19-2,9.87-3.1,13.66-3.1a19.86,19.86,0,0,1,16.31,8.56A19.83,19.83,0,0,0,95.1,69.53l-1.48.94-.57-1.66a20,20,0,0,0-38.91,6.08v.75l-.64.4a16.25,16.25,0,0,0,.38,27.89A16.22,16.22,0,0,1,49.43,92.79Z" transform="translate(-10.87 -7.59)"/></svg>