<?xml version="1.0" encoding="UTF-8"?>
<svg id="Camada_1" data-name="Camada 1" xmlns="http://www.w3.org/2000/svg" version="1.1" viewBox="0 0 2274.35 666.87">
  <defs>
    <style>
      .cls-1 {
        fill: #8f0cf4;
      }

      .cls-1, .cls-2 {
        stroke-width: 0px;
      }

      .cls-2 {
        fill: #00104c;
      }
    </style>
  </defs>
  <path class="cls-1" d="M719.72,293.76c0-94.46-76.57-171.03-171.03-171.03-69.51,0-129.29,41.48-156.06,101.02-26.67-30.56-65.88-49.9-109.64-49.9-80.33,0-145.47,65.14-145.47,145.47s65.14,145.5,145.47,145.5h267.01v-.03c93.85-.71,169.72-77,169.72-171.02ZM283,416.31h0s0,0,0,0c-53.55,0-96.98-43.43-96.98-97s43.43-96.98,96.98-96.98c46.5,0,85.32,32.73,94.77,76.4,1.32,46.08,20.84,87.58,51.66,117.58h-146.42ZM548.69,415.94c-60.22,0-110.25-43.61-120.31-100.95-.19-6.55-.8-12.99-1.83-19.3-.01-.65-.05-1.29-.05-1.94,0-67.47,54.72-122.17,122.19-122.17s122.17,54.7,122.17,122.17-54.7,122.19-122.17,122.19Z"/>
  <g>
    <path class="cls-2" d="M874.85,267.94c58.58,0,104.92,44.12,104.92,100.1s-46.34,100.1-104.92,100.1-104.55-44.49-104.55-100.1,46.34-100.1,104.55-100.1ZM874.85,422.91c30.03,0,53.02-24.1,53.02-54.87s-22.99-54.87-53.02-54.87-53.01,24.1-53.01,54.87,23.36,54.87,53.01,54.87Z"/>
    <path class="cls-2" d="M1092.82,468.14c-22.24,0-42.63-7.42-58.95-20.02v96.02h-48.93v-270.64h45.6v17.42c17.05-14.46,38.55-22.99,62.28-22.99,54.87,0,98.62,44.49,98.62,100.1s-43.75,100.1-98.62,100.1ZM1086.52,313.17c-28.92,0-52.65,23.73-52.65,54.87s23.73,54.87,52.65,54.87,53.38-23.73,53.38-54.87-23.73-54.87-53.38-54.87Z"/>
    <path class="cls-2" d="M1204.76,408.45c15.57,12.24,30.77,18.17,44.49,18.17s21.5-5.93,21.5-16.69c0-8.89-5.56-14.09-26.32-22.99l-8.16-3.34c-33.74-14.09-49.31-30.4-49.31-55.98,0-34.85,28.18-59.69,70.07-59.69,21.87,0,45.6,7.05,60.43,17.79l-21.13,36.71c-11.86-8.53-23.36-12.98-36.33-12.98-14.09,0-22.24,5.56-22.24,15.2,0,8.15,6.3,13.71,29.65,23.73l5.93,2.6c35.22,15.2,48.94,30.77,48.94,56.72,0,35.96-27.06,60.43-68.96,60.43-27.06,0-56.72-10.38-72.29-25.58l23.73-34.11Z"/>
    <path class="cls-2" d="M1316.73,273.5h34.1v-53.76h48.94v53.76h42.26v42.63h-42.26v146.44h-48.94v-146.44h-34.1v-42.63Z"/>
    <path class="cls-2" d="M1539.53,468.14c-61.54,0-106.77-42.26-106.77-99.36s44.49-100.84,101.58-100.84,96.02,42.63,96.02,98.62c0,5.56-.37,12.61-1.11,19.65h-142.73c4.82,22.99,23.73,37.82,51.9,37.82,19.28,0,33-7.05,46.71-23.36l38.93,28.91c-19.28,24.84-49.3,38.56-84.53,38.56ZM1578.08,347.28c-2.96-21.5-20.02-35.96-44.12-35.96s-40.04,15.2-45.97,35.96h90.09Z"/>
    <path class="cls-2" d="M1841.65,462.58h-46.34v-16.68c-16.68,14.09-38.19,22.24-61.55,22.24-54.49,0-98.24-44.49-98.24-100.1s43.75-100.1,98.24-100.1c23.36,0,44.86,8.16,61.55,22.24v-16.68h46.34v189.07ZM1740.07,422.91c29.29,0,52.65-23.73,52.65-54.87s-23.36-54.87-52.65-54.87-53.02,23.73-53.02,54.87,23.36,54.87,53.02,54.87Z"/>
    <path class="cls-2" d="M2025.51,462.58h-48.94v-111.22c0-22.24-15.2-38.93-36.33-38.93s-37.82,16.69-37.82,37.45v112.7h-48.94v-189.07h45.6v13.34c11.87-12.6,30.03-19.65,51.16-19.65,24.84,0,45.23,9.64,58.58,26.32,13.34-16.31,36.7-26.32,62.65-26.32,45.23,0,76.37,30.77,76.37,75.63v119.75h-48.94v-110.11c0-23.73-14.83-40.04-36.33-40.04s-37.07,16.32-37.07,37.82v112.33Z"/>
  </g>
</svg>